<?xml version="1.0" encoding="UTF-8" standalone="no"?><svg xmlns="http://www.w3.org/2000/svg" xmlns:xlink="http://www.w3.org/1999/xlink" contentScriptType="application/ecmascript" contentStyleType="text/css" height="486px" preserveAspectRatio="none" style="width:938px;height:486px;" version="1.1" viewBox="0 0 938 486" width="938px" zoomAndPan="magnify"><defs><filter height="300%" id="fj7ssij0axssa" width="300%" x="-1" y="-1"><feGaussianBlur result="blurOut" stdDeviation="2.0"/><feColorMatrix in="blurOut" result="blurOut2" type="matrix" values="0 0 0 0 0 0 0 0 0 0 0 0 0 0 0 0 0 0 .4 0"/><feOffset dx="4.0" dy="4.0" in="blurOut2" result="blurOut3"/><feBlend in="SourceGraphic" in2="blurOut3" mode="normal"/></filter></defs><g><!--MD5=[599c25d3f5b4009018870dff66b8c01b]
cluster Your Laptop--><polygon fill="#FFFFFF" filter="url(#fj7ssij0axssa)" points="16,6,121,6,128,28.2969,367,28.2969,367,358,16,358,16,6" style="stroke:#000000;stroke-width:1.5;"/><line style="stroke:#000000;stroke-width:1.5;" x1="16" x2="128" y1="28.2969" y2="28.2969"/><text fill="#000000" font-family="sans-serif" font-size="14" font-weight="bold" lengthAdjust="spacing" textLength="99" x="20" y="20.9951">Your Laptop</text><!--MD5=[ada27d640f96b4e43df4bc5029d1ade6]
cluster Cluster A - Minikube--><polygon fill="#FFFFFF" filter="url(#fj7ssij0axssa)" points="109,49,277,49,284,71.2969,343,71.2969,343,252,109,252,109,49" style="stroke:#000000;stroke-width:1.5;"/><line style="stroke:#000000;stroke-width:1.5;" x1="109" x2="284" y1="71.2969" y2="71.2969"/><text fill="#000000" font-family="sans-serif" font-size="14" font-weight="bold" lengthAdjust="spacing" textLength="162" x="113" y="63.9951">Cluster A - Minikube</text><!--MD5=[aaeeff8077ebd7be94b735b27cfa8568]
cluster Cluster B - Remote--><polygon fill="#FFFFFF" filter="url(#fj7ssij0axssa)" points="212,382,370,382,377,404.2969,380,404.2969,380,479,212,479,212,382" style="stroke:#000000;stroke-width:1.5;"/><line style="stroke:#000000;stroke-width:1.5;" x1="212" x2="377" y1="404.2969" y2="404.2969"/><text fill="#000000" font-family="sans-serif" font-size="14" font-weight="bold" lengthAdjust="spacing" textLength="152" x="216" y="396.9951">Cluster B - Remote</text><!--MD5=[a22ed32bff09cc64b95492a1c1fbb908]
entity teleproxy--><rect fill="#FEFECE" filter="url(#fj7ssij0axssa)" height="46.2969" style="stroke:#A80036;stroke-width:1.5;" width="110" x="241" y="296"/><rect fill="#FEFECE" height="10" style="stroke:#A80036;stroke-width:1.5;" width="15" x="331" y="301"/><rect fill="#FEFECE" height="2" style="stroke:#A80036;stroke-width:1.5;" width="4" x="329" y="303"/><rect fill="#FEFECE" height="2" style="stroke:#A80036;stroke-width:1.5;" width="4" x="329" y="307"/><text fill="#000000" font-family="sans-serif" font-size="14" lengthAdjust="spacing" textLength="70" x="256" y="328.9951">teleproxy</text><!--MD5=[5e0fc243325f55d9a481393b5245a6b6]
entity telepresence local--><rect fill="#FEFECE" filter="url(#fj7ssij0axssa)" height="46.2969" style="stroke:#A80036;stroke-width:1.5;" width="173" x="32.5" y="296"/><rect fill="#FEFECE" height="10" style="stroke:#A80036;stroke-width:1.5;" width="15" x="185.5" y="301"/><rect fill="#FEFECE" height="2" style="stroke:#A80036;stroke-width:1.5;" width="4" x="183.5" y="303"/><rect fill="#FEFECE" height="2" style="stroke:#A80036;stroke-width:1.5;" width="4" x="183.5" y="307"/><text fill="#000000" font-family="sans-serif" font-size="14" lengthAdjust="spacing" textLength="133" x="47.5" y="328.9951">telepresence local</text><!--MD5=[0a6680cd897cb54006fe44013d3c0477]
entity telepresence incluster--><rect fill="#FEFECE" filter="url(#fj7ssij0axssa)" height="46.2969" style="stroke:#A80036;stroke-width:1.5;" width="202" x="125" y="190"/><rect fill="#FEFECE" height="10" style="stroke:#A80036;stroke-width:1.5;" width="15" x="307" y="195"/><rect fill="#FEFECE" height="2" style="stroke:#A80036;stroke-width:1.5;" width="4" x="305" y="197"/><rect fill="#FEFECE" height="2" style="stroke:#A80036;stroke-width:1.5;" width="4" x="305" y="201"/><text fill="#000000" font-family="sans-serif" font-size="14" lengthAdjust="spacing" textLength="162" x="140" y="222.9951">telepresence incluster</text><!--MD5=[c192f79ae0803536b831768f4d25dfc9]
entity other pod--><rect fill="#FEFECE" filter="url(#fj7ssij0axssa)" height="46.2969" style="stroke:#A80036;stroke-width:1.5;" width="112" x="192" y="84"/><rect fill="#FEFECE" height="10" style="stroke:#A80036;stroke-width:1.5;" width="15" x="284" y="89"/><rect fill="#FEFECE" height="2" style="stroke:#A80036;stroke-width:1.5;" width="4" x="282" y="91"/><rect fill="#FEFECE" height="2" style="stroke:#A80036;stroke-width:1.5;" width="4" x="282" y="95"/><text fill="#000000" font-family="sans-serif" font-size="14" lengthAdjust="spacing" textLength="72" x="207" y="116.9951">other pod</text><!--MD5=[17cd1ff36eeea05c4518762bff46d986]
entity target pod--><rect fill="#FEFECE" filter="url(#fj7ssij0axssa)" height="46.2969" style="stroke:#A80036;stroke-width:1.5;" width="118" x="237" y="417"/><rect fill="#FEFECE" height="10" style="stroke:#A80036;stroke-width:1.5;" width="15" x="335" y="422"/><rect fill="#FEFECE" height="2" style="stroke:#A80036;stroke-width:1.5;" width="4" x="333" y="424"/><rect fill="#FEFECE" height="2" style="stroke:#A80036;stroke-width:1.5;" width="4" x="333" y="428"/><text fill="#000000" font-family="sans-serif" font-size="14" lengthAdjust="spacing" textLength="78" x="252" y="449.9951">target pod</text><path d="M383,193 L383,209 L327.062,213 L383,217 L383,233.2656 A0,0 0 0 0 383,233.2656 L597,233.2656 A0,0 0 0 0 597,233.2656 L597,203 L587,193 L383,193 A0,0 0 0 0 383,193 " fill="#FBFB77" filter="url(#fj7ssij0axssa)" style="stroke:#A80036;stroke-width:1.0;"/><path d="M587,193 L587,203 L597,203 L587,193 " fill="#FBFB77" style="stroke:#A80036;stroke-width:1.0;"/><text fill="#000000" font-family="sans-serif" font-size="13" lengthAdjust="spacing" textLength="193" x="389" y="210.0669">Replaces source_deployment.</text><text fill="#000000" font-family="sans-serif" font-size="13" lengthAdjust="spacing" textLength="192" x="389" y="225.1997">(someservice in our example)</text><path d="M386.5,306.5 L386.5,331.6328 L691.5,331.6328 L691.5,316.5 L681.5,306.5 L386.5,306.5 " fill="#FBFB77" filter="url(#fj7ssij0axssa)" style="stroke:#A80036;stroke-width:1.0;"/><path d="M681.5,306.5 L681.5,316.5 L691.5,316.5 L681.5,306.5 " fill="#FBFB77" style="stroke:#A80036;stroke-width:1.0;"/><text fill="#000000" font-family="sans-serif" font-size="13" lengthAdjust="spacing" textLength="284" x="392.5" y="323.5669">Receives traffic from telepresence incluster.</text><path d="M727,306.5 L727,331.6328 L929,331.6328 L929,316.5 L919,306.5 L727,306.5 " fill="#FBFB77" filter="url(#fj7ssij0axssa)" style="stroke:#A80036;stroke-width:1.0;"/><path d="M919,306.5 L919,316.5 L929,316.5 L919,306.5 " fill="#FBFB77" style="stroke:#A80036;stroke-width:1.0;"/><text fill="#000000" font-family="sans-serif" font-size="13" lengthAdjust="spacing" textLength="181" x="733" y="323.5669">Runs `kubectl port-forward`</text><path d="M383.5,87 L383.5,103 L304.109,107 L383.5,111 L383.5,127.2656 A0,0 0 0 0 383.5,127.2656 L720.5,127.2656 A0,0 0 0 0 720.5,127.2656 L720.5,97 L710.5,87 L383.5,87 A0,0 0 0 0 383.5,87 " fill="#FBFB77" filter="url(#fj7ssij0axssa)" style="stroke:#A80036;stroke-width:1.0;"/><path d="M710.5,87 L710.5,97 L720.5,97 L710.5,87 " fill="#FBFB77" style="stroke:#A80036;stroke-width:1.0;"/><text fill="#000000" font-family="sans-serif" font-size="13" lengthAdjust="spacing" textLength="316" x="389.5" y="104.0669">Normally uses source_deployment but now using</text><text fill="#000000" font-family="sans-serif" font-size="13" lengthAdjust="spacing" textLength="244" x="389.5" y="119.1997">the replacement pod without noticing.</text><!--MD5=[de6bdf553890d22581dfe65ab1830956]
link telepresence incluster to telepresence local--><path d="M203.308,236.056 C186.427,252.464 163.337,274.906 145.589,292.156 " fill="none" id="telepresence incluster-to-telepresence local" style="stroke:#A80036;stroke-width:1.0;"/><polygon fill="#A80036" points="141.659,295.976,150.9012,292.5727,145.2449,292.4915,145.326,286.8353,141.659,295.976" style="stroke:#A80036;stroke-width:1.0;"/><!--MD5=[57f4ba5a7d177b8d6996e4888f16c8b3]
link telepresence local to teleproxy--><path d="M205.771,319 C215.676,319 225.581,319 235.485,319 " fill="none" id="telepresence local-to-teleproxy" style="stroke:#A80036;stroke-width:1.0;"/><polygon fill="#A80036" points="240.665,319,231.665,315,235.665,319,231.665,323,240.665,319" style="stroke:#A80036;stroke-width:1.0;"/><!--MD5=[f043146408407c7bbb87eb6253afa778]
link teleproxy to target pod--><path d="M296,342.104 C296,361.685 296,390.351 296,411.4262 " fill="none" id="teleproxy-to-target pod" style="stroke:#A80036;stroke-width:1.0;"/><polygon fill="#A80036" points="296,416.6105,300,407.6105,296,411.6105,292,407.6105,296,416.6105" style="stroke:#A80036;stroke-width:1.0;"/><!--MD5=[93c7e7e6972f6e2fd39c62a148bfe5ac]
link other pod to telepresence incluster--><path d="M243.334,130.056 C239.951,146.05 235.355,167.778 231.745,184.842 " fill="none" id="other pod-to-telepresence incluster" style="stroke:#A80036;stroke-width:1.0;"/><polygon fill="#A80036" points="230.659,189.976,236.4366,181.9998,231.6947,185.0845,228.6101,180.3426,230.659,189.976" style="stroke:#A80036;stroke-width:1.0;"/><!--MD5=[32ce2808002a3faea334fc07f3402062]
link GMN399113 to telepresence local--><path d="M500.871,306.457 C444.185,289.457 334.384,262.869 241.5,278 C219.365,281.606 195.831,288.651 175.368,295.898 " fill="none" id="GMN399113-telepresence local" style="stroke:#A80036;stroke-width:1.0;stroke-dasharray:7.0,7.0;"/><!--MD5=[2fb220c760ab01f848ae953b21893c77]
link teleproxy to GMN399116--><path d="M337.078,295.937 C352.142,288.694 369.64,281.641 386.5,278 C452.751,263.693 624.442,268.147 691.5,278 C728.099,283.378 768.503,296.457 795.787,306.409 " fill="none" id="teleproxy-GMN399116" style="stroke:#A80036;stroke-width:1.0;stroke-dasharray:7.0,7.0;"/><!--MD5=[0d9b483d654c518231571532d56efebd]
@startuml
package "Your Laptop" {

    [teleproxy]
    [telepresence local]

    package "Cluster A - Minikube" {
        [telepresence incluster]
        [other pod]
    }

}

package "Cluster B - Remote" {
    [target pod]
}

[telepresence incluster] - -> [telepresence local]
[telepresence local] -> [teleproxy]
[teleproxy] - -> [target pod]
[other pod] - -> [telepresence incluster]

note left of [telepresence incluster]
  Replaces source_deployment.
  (someservice in our example)
endnote

note left of [telepresence local]: Receives traffic from telepresence incluster.

note right of [teleproxy]: Runs `kubectl port-forward`

note right of [other pod]
 Normally uses source_deployment but now using
 the replacement pod without noticing.
endnote
@enduml

PlantUML version 1.2021.2beta9(Unknown compile time)
(GPL source distribution)
Java Runtime: Java(TM) SE Runtime Environment
JVM: Java HotSpot(TM) 64-Bit Server VM
Default Encoding: UTF-8
Language: en
Country: US
--></g></svg>